<?xml version="1.0" encoding="utf-8"?>
<!-- Generator: Adobe Illustrator 23.0.3, SVG Export Plug-In . SVG Version: 6.00 Build 0)  -->
<svg version="1.1" id="Layer_1" xmlns="http://www.w3.org/2000/svg" xmlns:xlink="http://www.w3.org/1999/xlink" x="0px" y="0px"
	 viewBox="0 0 612 612" style="enable-background:new 0 0 612 612;" xml:space="preserve">
<style type="text/css">
	.st0{fill:#FFFFFF;}
</style>
<path class="st0" d="M128.5,147.7h-109c-10.7,0-19.3-8.6-19.3-19.3v-109C0.1,8.7,8.8,0.1,19.4,0.1h109c10.7,0,19.3,8.6,19.3,19.3
	v109C147.8,139,139.1,147.7,128.5,147.7z"/>
<path class="st0" d="M356.1,148h-109c-10.7,0-19.3-8.6-19.3-19.3v-109c0-10.7,8.6-19.3,19.3-19.3h109c10.7,0,19.3,8.6,19.3,19.3v109
	C375.4,139.3,366.8,148,356.1,148z"/>
<path class="st0" d="M593,148H484c-10.7,0-19.3-8.6-19.3-19.3v-109c0-10.7,8.6-19.3,19.3-19.3h109c10.7,0,19.3,8.6,19.3,19.3v109
	C612.3,139.3,603.6,148,593,148z"/>
<path class="st0" d="M128.5,380.7h-109c-10.7,0-19.3-8.6-19.3-19.3v-109c0-10.7,8.6-19.3,19.3-19.3h109c10.7,0,19.3,8.6,19.3,19.3
	v109C147.8,372.1,139.2,380.7,128.5,380.7z"/>
<path class="st0" d="M356.1,380.7h-109c-10.7,0-19.3-8.6-19.3-19.3v-109c0-10.7,8.6-19.3,19.3-19.3h109c10.7,0,19.3,8.6,19.3,19.3
	v109C375.4,372.1,366.8,380.7,356.1,380.7z"/>
<path class="st0" d="M592.7,380.7h-109c-10.7,0-19.3-8.6-19.3-19.3v-109c0-10.7,8.6-19.3,19.3-19.3h109c10.7,0,19.3,8.6,19.3,19.3
	v109C612,372.1,603.3,380.7,592.7,380.7z"/>
<path class="st0" d="M128.4,612.4h-109c-10.7,0-19.3-8.6-19.3-19.3v-109c0-10.7,8.6-19.3,19.3-19.3h109c10.7,0,19.3,8.6,19.3,19.3
	v109C147.7,603.8,139.1,612.4,128.4,612.4z"/>
<path class="st0" d="M355.7,612.3h-109c-10.7,0-19.3-8.6-19.3-19.3V484c0-10.7,8.6-19.3,19.3-19.3h109c10.7,0,19.3,8.6,19.3,19.3
	v109C375,603.6,366.4,612.3,355.7,612.3z"/>
<path class="st0" d="M592.4,612.4h-109c-10.7,0-19.3-8.6-19.3-19.3v-109c0-10.7,8.6-19.3,19.3-19.3h109c10.7,0,19.3,8.6,19.3,19.3
	v109C611.7,603.8,603.1,612.4,592.4,612.4z"/>
</svg>
