<?xml version="1.0" encoding="utf-8"?>
<!-- Generator: Adobe Illustrator 23.0.3, SVG Export Plug-In . SVG Version: 6.00 Build 0)  -->
<svg version="1.1" id="Layer_1" xmlns="http://www.w3.org/2000/svg" xmlns:xlink="http://www.w3.org/1999/xlink" x="0px" y="0px"
	 viewBox="0 0 612 612" style="enable-background:new 0 0 612 612;" xml:space="preserve">
<style type="text/css">
	.st0{fill:#706F70;}
</style>
<path class="st0" d="M143.3,162.1H20.1c-10.7,0-19.3-8.6-19.3-19.3V19.6C0.8,8.9,9.4,0.2,20.1,0.2h123.2c10.7,0,19.3,8.6,19.3,19.3
	v123.2C162.6,153.4,154,162.1,143.3,162.1z"/>
<path class="st0" d="M362.8,162H239.6c-10.7,0-19.3-8.6-19.3-19.3V19.5c0-10.7,8.6-19.3,19.3-19.3h123.2c10.7,0,19.3,8.6,19.3,19.3
	v123.2C382.1,153.4,373.5,162,362.8,162z"/>
<path class="st0" d="M592.8,162H469.6c-10.7,0-19.3-8.6-19.3-19.3V19.4c0-10.7,8.6-19.3,19.3-19.3h123.2c10.7,0,19.3,8.6,19.3,19.3
	v123.2C612.1,153.3,603.5,162,592.8,162z"/>
<path class="st0" d="M144,387.9H20.8c-10.7,0-19.3-8.6-19.3-19.3V245.4c0-10.7,8.6-19.3,19.3-19.3H144c10.7,0,19.3,8.6,19.3,19.3
	v123.2C163.3,379.2,154.6,387.9,144,387.9z"/>
<path class="st0" d="M362.8,387.9H239.6c-10.7,0-19.3-8.6-19.3-19.3V245.4c0-10.7,8.6-19.3,19.3-19.3h123.2
	c10.7,0,19.3,8.6,19.3,19.3v123.2C382.1,379.2,373.5,387.9,362.8,387.9z"/>
<path class="st0" d="M592.6,387.9H469.3c-10.7,0-19.3-8.6-19.3-19.3V245.4c0-10.7,8.6-19.3,19.3-19.3h123.2
	c10.7,0,19.3,8.6,19.3,19.3v123.2C611.9,379.2,603.2,387.9,592.6,387.9z"/>
<path class="st0" d="M142.5,612.2H19.3C8.6,612.2,0,603.5,0,592.9V469.7c0-10.7,8.6-19.3,19.3-19.3h123.2c10.7,0,19.3,8.6,19.3,19.3
	v123.2C161.8,603.5,153.2,612.2,142.5,612.2z"/>
<path class="st0" d="M362.3,612H239.1c-10.7,0-19.3-8.6-19.3-19.3V469.5c0-10.7,8.6-19.3,19.3-19.3h123.2c10.7,0,19.3,8.6,19.3,19.3
	v123.2C381.7,603.4,373,612,362.3,612z"/>
<path class="st0" d="M592.6,612.2H469.4c-10.7,0-19.3-8.6-19.3-19.3V469.7c0-10.7,8.6-19.3,19.3-19.3h123.2
	c10.7,0,19.3,8.6,19.3,19.3v123.2C611.9,603.5,603.3,612.2,592.6,612.2z"/>
</svg>
